<svg xmlns="http://www.w3.org/2000/svg" xmlns:xlink="http://www.w3.org/1999/xlink" width="150" height="45" viewBox="0 0 150 45"><defs><style>.a{clip-path:url(#b);}.b{fill:#f6f5f4;}.c{fill:none;stroke:#d2dfd9;stroke-miterlimit:10;stroke-width:2px;}.d{fill:#d2dfd9;}</style><clipPath id="b"><rect width="150" height="45"/></clipPath></defs><g id="a" class="a"><g transform="translate(-1.288 -0.287)"><path class="b" d="M1.288,44.9c1.188.119,2,.272,2.813.274q71.4.022,142.8.082c3.746.008,4.6-1.577,4.35-4.871-1.018-13.589-11.616-23.956-25.721-22.345-8.243.941-12.572-1.854-17.567-7.233C92.958-5.341,62.513.49,52.054,14.226c-3.372,4.43-6.109,5.326-11.319,4.967C31.8,18.575,23.287,20.254,18.8,29.821c-.53,1.133-2.832,1.8-4.406,2.021C4.711,33.172,1.858,35.823,1.288,44.9Z"/><path class="c" d="M71.882,16.553c1.391-1.731,3.48-3.859,6.3-3.917,1.75-.038,3.59-.307,6.3,3.917" transform="translate(24.065 3.945)"/><path class="c" d="M41.9,16.553c1.391-1.731,3.48-3.859,6.3-3.917,1.75-.038,3.59-.307,6.3,3.917" transform="translate(13.844 3.945)"/><path class="d" d="M55.836,14.691a7.08,7.08,0,0,0,14.132,0Z" transform="translate(18.595 4.651)"/></g></g></svg>