<?xml version="1.0" encoding="iso-8859-1"?>
<!-- Generator: Adobe Illustrator 19.0.0, SVG Export Plug-In . SVG Version: 6.00 Build 0)  -->
<svg version="1.1" id="Capa_1" xmlns="http://www.w3.org/2000/svg" xmlns:xlink="http://www.w3.org/1999/xlink" x="0px" y="0px"
	 viewBox="0 0 512 512" style="enable-background:new 0 0 512 512;" xml:space="preserve">
<path style="fill:#00DFC1;" d="M512,70.605l-24.586,25.456c-14.584,15.104-48.212,51.813-80.741,87.312
	c-39.92,43.581-77.63,84.742-89.183,96.034l-10.493-10.723l-27.777-27.217l-16.734-16.404c-0.09,0.09-0.18,0.18-0.27,0.27
	l-10.443-10.763l-0.01-0.01l-10.443-10.773c19.155-18.575,40.3-40.18,60.735-61.086c22.596-23.096,45.952-46.972,67.607-67.797
	l4.351-4.181l69.488-0.06L512,70.605z"/>
<path style="fill:#FF7A53;" d="M117.222,441.395h-2.48c-10.864,0-21.632-1.537-32.006-4.568l8.416-28.803
	c7.638,2.233,15.575,3.364,23.589,3.364h2.48v30.008H117.222z M151.739,435.992l-9.139-28.582
	c8.202-2.623,15.956-6.491,23.045-11.498l17.311,24.511C173.363,427.197,162.859,432.435,151.739,435.992z M51.133,422.036
	c-9.703-6.502-18.349-14.413-25.694-23.515l23.353-18.845c5.445,6.748,11.853,12.612,19.044,17.429L51.133,422.036z
	 M208.063,396.284l-23.81-18.264c5.285-6.89,9.46-14.487,12.412-22.581l28.192,10.28
	C220.858,376.686,215.208,386.968,208.063,396.284z M7.898,368.395c-4.289-10.905-6.86-22.367-7.643-34.069l29.942-2.001
	c0.576,8.618,2.469,17.058,5.626,25.087L7.898,368.395z M231.641,331.469l-29.982-1.253c0.049-1.179,0.074-2.379,0.074-3.564v-26.25
	h30.008v26.25C231.742,328.254,231.708,329.875,231.641,331.469z M30.008,302.889H0v-30.443h30.008V302.889z M231.742,269.961
	h-30.008v-30.443h30.008V269.961z M30.008,242.003H0v-30.443h30.008V242.003z M231.742,209.075h-30.008v-23.653
	c0-1.917-0.066-3.856-0.195-5.765l29.939-2.035c0.176,2.584,0.265,5.207,0.265,7.8L231.742,209.075L231.742,209.075z
	 M30.087,181.765l-29.981-1.289c0.504-11.725,2.799-23.246,6.822-34.241l28.181,10.312
	C32.147,164.641,30.458,173.125,30.087,181.765z M195.885,154.576c-3.164-8.016-7.536-15.503-12.995-22.253l23.332-18.87
	c7.378,9.123,13.291,19.252,17.575,30.108L195.885,154.576z M47.546,133.98l-23.789-18.291c7.127-9.268,15.583-17.38,25.134-24.11
	l17.283,24.529C59.097,121.097,52.828,127.109,47.546,133.98z M163.828,114.915c-7.212-4.82-15.061-8.484-23.329-10.891
	l8.385-28.812c11.216,3.264,21.855,8.228,31.619,14.755L163.828,114.915z M89.233,104.637l-9.106-28.592
	c11.139-3.548,22.743-5.353,34.489-5.365l0.032,30.008C105.983,100.696,97.433,102.025,89.233,104.637z"/>
<path style="fill:#00AF98;" d="M512,70.605l-24.586,25.456c-14.584,15.104-48.212,51.813-80.741,87.312
	c-39.92,43.581-77.63,84.742-89.183,96.034l-10.493-10.723l-27.777-27.217c63.876-67.097,129.323-135.444,164.282-170.803
	L512,70.605z"/>
<path style="fill:#FFC473;" d="M315.21,330.341c-23.976,48.932-80.43,66.227-126.922,66.227c-1.5,0-2.981-0.02-4.451-0.06
	c-14.524-0.35-30.088-2.601-45.221-6.832c-34.729-9.712-67.117-29.868-79.04-61.366l-5.801-15.334l15.784-4.421
	c21.025-5.892,47.182-15.234,62.916-35.419c4.151-5.321,7.712-10.873,11.493-16.754c8.302-12.933,16.884-26.317,31.878-37.089
	c19.945-14.364,43.781-21.736,67.097-20.755c20.955,0.88,39.98,9.312,54.524,23.766c5.171,5.121,9.772,11.013,13.693,17.604
	C327.513,267.405,329.074,302.054,315.21,330.341z"/>
<path style="fill:#FFAA20;" d="M315.21,330.341c-23.976,48.932-80.43,66.227-126.922,66.227c-1.5,0-2.981-0.02-4.451-0.06
	c-14.524-0.35-30.088-2.601-45.221-6.832c35.819-37.86,98.005-103.526,158.85-167.373c5.171,5.121,9.772,11.013,13.693,17.604
	C327.513,267.405,329.074,302.054,315.21,330.341z"/>
<g>
</g>
<g>
</g>
<g>
</g>
<g>
</g>
<g>
</g>
<g>
</g>
<g>
</g>
<g>
</g>
<g>
</g>
<g>
</g>
<g>
</g>
<g>
</g>
<g>
</g>
<g>
</g>
<g>
</g>
</svg>
